<svg width="113" height="27" viewBox="0 0 113 27" fill="none" xmlns="http://www.w3.org/2000/svg">
<path d="M5.00422 21H2.44422V6.38H8.02422C11.3442 6.38 13.2842 8.06 13.2842 10.94C13.2842 12.9 12.3642 14.3 10.6442 15L13.4242 21H10.6242L8.14422 15.54H5.00422V21ZM5.00422 8.66V13.28H8.02422C9.64422 13.28 10.6042 12.42 10.6042 10.94C10.6042 9.48 9.64422 8.66 8.02422 8.66H5.00422ZM19.1995 21.26C16.2595 21.26 14.1995 19.12 14.1995 16.06C14.1995 12.96 16.2195 10.82 19.1195 10.82C22.0795 10.82 23.9595 12.8 23.9595 15.88V16.62L16.5195 16.64C16.6995 18.38 17.6195 19.26 19.2395 19.26C20.5795 19.26 21.4595 18.74 21.7395 17.8H23.9995C23.5795 19.96 21.7795 21.26 19.1995 21.26ZM19.1395 12.82C17.6995 12.82 16.8195 13.6 16.5795 15.08H21.5395C21.5395 13.72 20.5995 12.82 19.1395 12.82ZM28.7547 21.26C26.6547 21.26 25.3747 20.04 25.3747 18.18C25.3747 16.36 26.6947 15.22 29.0347 15.04L31.9947 14.82V14.6C31.9947 13.26 31.1947 12.72 29.9547 12.72C28.5147 12.72 27.7147 13.32 27.7147 14.36H25.6347C25.6347 12.22 27.3947 10.82 30.0747 10.82C32.7347 10.82 34.3747 12.26 34.3747 15V21H32.2347L32.0547 19.54C31.6347 20.56 30.2947 21.26 28.7547 21.26ZM29.5547 19.42C31.0547 19.42 32.0147 18.52 32.0147 17V16.48L29.9547 16.64C28.4347 16.78 27.8547 17.28 27.8547 18.08C27.8547 18.98 28.4547 19.42 29.5547 19.42ZM39.2317 21H36.8117V6.12H39.2317V21ZM42.2713 21V6.68H47.5113C50.2713 6.68 51.9713 8.08 51.9713 10.38C51.9713 12.06 51.2313 13.2 49.7513 13.78C51.4113 14.32 52.2513 15.48 52.2513 17.24C52.2513 19.54 50.5312 21 47.8113 21H42.2713ZM47.4913 7.96H43.7113V13.2H47.6713C49.4713 13.2 50.4913 12.2 50.4913 10.5C50.4913 8.9 49.4113 7.96 47.4913 7.96ZM47.8113 14.46H43.7113V19.7H47.8113C49.6913 19.7 50.7913 18.72 50.7913 17.06C50.7913 15.44 49.6713 14.46 47.8113 14.46ZM59.6094 11.2V12.44H58.8494C57.0694 12.44 55.9294 13.64 55.9294 15.48V21H54.5494V11.32H55.8494L55.9494 12.82C56.3294 11.78 57.3494 11.1 58.7094 11.1C59.0094 11.1 59.2694 11.12 59.6094 11.2ZM60.3928 16.16C60.3928 13.2 62.4728 11.06 65.3128 11.06C68.1528 11.06 70.2328 13.2 70.2328 16.16C70.2328 19.1 68.1528 21.24 65.3128 21.24C62.4728 21.24 60.3928 19.1 60.3928 16.16ZM61.7928 16.14C61.7928 18.42 63.2328 20 65.3128 20C67.3728 20 68.8328 18.42 68.8328 16.14C68.8328 13.9 67.3728 12.3 65.3128 12.3C63.2328 12.3 61.7928 13.9 61.7928 16.14Z" fill="#334155"/>
<rect width="40" height="14" transform="translate(73 9)" fill="#334155"/>
<path d="M79.652 19.5H78.588L80.7 13.652H81.748L83.86 19.5H82.78L82.308 18.148H80.124L79.652 19.5ZM81.092 15.396L80.428 17.284H82.012L81.34 15.396C81.292 15.244 81.236 15.068 81.22 14.948C81.196 15.06 81.148 15.236 81.092 15.396ZM87.0173 19.5H84.9133V13.652H86.9613C88.6893 13.652 89.8813 14.844 89.8813 16.588C89.8813 18.308 88.7133 19.5 87.0173 19.5ZM86.8653 14.596H85.9373V18.556H86.9213C88.0893 18.556 88.8013 17.804 88.8013 16.588C88.8013 15.348 88.0733 14.596 86.8653 14.596ZM92.1472 19.5H91.1552V13.652H92.1472L94.0352 18.308L95.9232 13.652H96.9312V19.5H95.9392V17.7C95.9392 16.524 95.9392 16.18 95.9952 15.764L94.5072 19.5H93.5632L92.0832 15.772C92.1392 16.124 92.1472 16.676 92.1472 17.404V19.5ZM99.5695 13.652V19.5H98.5455V13.652H99.5695ZM102.194 19.5H101.186V13.652H102.202L104.946 17.796V13.652H105.954V19.5H104.946L102.194 15.356V19.5Z" fill="white"/>
</svg>
